HIERARCHY
ROOT mixamorig:Hips
{
	OFFSET 0.000000 104.274902 0.000000
	CHANNELS 6 Xposition Yposition Zposition Xrotation Yrotation Zrotation
	JOINT mixamorig:Spine
	{
		OFFSET 0.000000 10.181549 0.131524
		CHANNELS 6 Xposition Yposition Zposition Xrotation Yrotation Zrotation
		JOINT mixamorig:Spine1
		{
			OFFSET 0.000000 9.893990 -1.470706
			CHANNELS 3 Xrotation Yrotation Zrotation
			JOINT mixamorig:Spine2
			{
				OFFSET 0.000000 9.220787 -1.370637
				CHANNELS 3 Xrotation Yrotation Zrotation
				JOINT mixamorig:Neck
				{
					OFFSET 0.000000 16.740372 -2.049022
					CHANNELS 6 Xposition Yposition Zposition Xrotation Yrotation Zrotation
					JOINT mixamorig:Head
					{
						OFFSET 0.000000 9.617859 1.684976
						CHANNELS 6 Xposition Yposition Zposition Xrotation Yrotation Zrotation
						JOINT mixamorig:HeadTop_End
						{
							OFFSET 0.000000 22.037384 7.501072
							CHANNELS 6 Xposition Yposition Zposition Xrotation Yrotation Zrotation
							End Site
							{
								OFFSET 0.000000 23.106567 -2.828246
							}
						}
					}
				}
				JOINT mixamorig:RightShoulder
				{
					OFFSET -4.570000 11.014877 -2.160840
					CHANNELS 6 Xposition Yposition Zposition Xrotation Yrotation Zrotation
					JOINT mixamorig:RightArm
					{
						OFFSET -10.592867 -0.524796 -2.232105
						CHANNELS 3 Xrotation Yrotation Zrotation
						JOINT mixamorig:RightForeArm
						{
							OFFSET -27.841497 0.000000 -0.000002
							CHANNELS 3 Xrotation Yrotation Zrotation
							JOINT mixamorig:RightHand
							{
								OFFSET -28.328812 0.000000 -0.000001
								CHANNELS 3 Xrotation Yrotation Zrotation
								JOINT mixamorig:RightHandThumb1
								{
									OFFSET -2.464798 -1.573990 2.681911
									CHANNELS 6 Xposition Yposition Zposition Xrotation Yrotation Zrotation
									JOINT mixamorig:RightHandThumb2
									{
										OFFSET -3.244781 -1.873383 1.873376
										CHANNELS 3 Xrotation Yrotation Zrotation
										JOINT mixamorig:RightHandThumb3
										{
											OFFSET -2.646263 -1.527817 1.527818
											CHANNELS 6 Xposition Yposition Zposition Xrotation Yrotation Zrotation
											JOINT mixamorig:RightHandThumb4
											{
												OFFSET -1.994591 -1.151581 1.151575
												CHANNELS 6 Xposition Yposition Zposition Xrotation Yrotation Zrotation
												End Site
												{
													OFFSET -1.860176 -1.142715 1.365483
												}
											}
										}
									}
								}
								JOINT mixamorig:RightHandIndex1
								{
									OFFSET -9.108299 -0.517883 2.259803
									CHANNELS 6 Xposition Yposition Zposition Xrotation Yrotation Zrotation
									JOINT mixamorig:RightHandIndex2
									{
										OFFSET -3.699997 0.000000 0.000000
										CHANNELS 3 Xrotation Yrotation Zrotation
										JOINT mixamorig:RightHandIndex3
										{
											OFFSET -2.850006 0.000000 0.000000
											CHANNELS 3 Xrotation Yrotation Zrotation
											JOINT mixamorig:RightHandIndex4
											{
												OFFSET -2.772194 0.000000 0.000000
												CHANNELS 3 Xrotation Yrotation Zrotation
												End Site
												{
													OFFSET -2.772202 0.000000 -0.000484
												}
											}
										}
									}
								}
								JOINT mixamorig:RightHandMiddle1
								{
									OFFSET -9.532501 0.000000 -0.000000
									CHANNELS 6 Xposition Yposition Zposition Xrotation Yrotation Zrotation
									JOINT mixamorig:RightHandMiddle2
									{
										OFFSET -3.699997 0.000000 0.000000
										CHANNELS 3 Xrotation Yrotation Zrotation
										JOINT mixamorig:RightHandMiddle3
										{
											OFFSET -2.949997 0.000000 0.000000
											CHANNELS 3 Xrotation Yrotation Zrotation
											JOINT mixamorig:RightHandMiddle4
											{
												OFFSET -2.946594 0.000000 0.000000
												CHANNELS 3 Xrotation Yrotation Zrotation
												End Site
												{
													OFFSET -2.946602 0.000000 -0.000982
												}
											}
										}
									}
								}
								JOINT mixamorig:RightHandRing1
								{
									OFFSET -9.103600 -0.043106 -1.865100
									CHANNELS 6 Xposition Yposition Zposition Xrotation Yrotation Zrotation
									JOINT mixamorig:RightHandRing2
									{
										OFFSET -3.379303 0.000000 0.000000
										CHANNELS 3 Xrotation Yrotation Zrotation
										JOINT mixamorig:RightHandRing3
										{
											OFFSET -2.889694 0.000000 0.000000
											CHANNELS 3 Xrotation Yrotation Zrotation
											JOINT mixamorig:RightHandRing4
											{
												OFFSET -2.638802 0.000000 0.000000
												CHANNELS 3 Xrotation Yrotation Zrotation
												End Site
												{
													OFFSET -2.638802 0.000000 0.004218
												}
											}
										}
									}
								}
								JOINT mixamorig:RightHandPinky1
								{
									OFFSET -8.076698 -0.486725 -3.806299
									CHANNELS 6 Xposition Yposition Zposition Xrotation Yrotation Zrotation
									JOINT mixamorig:RightHandPinky2
									{
										OFFSET -3.600006 0.000000 0.000000
										CHANNELS 3 Xrotation Yrotation Zrotation
										JOINT mixamorig:RightHandPinky3
										{
											OFFSET -2.099998 0.000000 0.000000
											CHANNELS 3 Xrotation Yrotation Zrotation
											JOINT mixamorig:RightHandPinky4
											{
												OFFSET -2.115791 0.000000 0.000000
												CHANNELS 3 Xrotation Yrotation Zrotation
												End Site
												{
													OFFSET -2.115799 0.000000 0.000174
												}
											}
										}
									}
								}
							}
						}
					}
				}
				JOINT mixamorig:LeftShoulder
				{
					OFFSET 4.570400 11.014679 -2.160816
					CHANNELS 6 Xposition Yposition Zposition Xrotation Yrotation Zrotation
					JOINT mixamorig:LeftArm
					{
						OFFSET 10.592373 -0.524597 -2.232116
						CHANNELS 3 Xrotation Yrotation Zrotation
						JOINT mixamorig:LeftForeArm
						{
							OFFSET 27.841488 0.000000 0.000001
							CHANNELS 3 Xrotation Yrotation Zrotation
							JOINT mixamorig:LeftHand
							{
								OFFSET 28.328808 0.000000 -0.000000
								CHANNELS 3 Xrotation Yrotation Zrotation
								JOINT mixamorig:LeftHandThumb1
								{
									OFFSET 2.466103 -1.576202 2.681698
									CHANNELS 6 Xposition Yposition Zposition Xrotation Yrotation Zrotation
									JOINT mixamorig:LeftHandThumb2
									{
										OFFSET 3.243317 -1.872528 1.872530
										CHANNELS 3 Xrotation Yrotation Zrotation
										JOINT mixamorig:LeftHandThumb3
										{
											OFFSET 2.647881 -1.528763 1.528754
											CHANNELS 6 Xposition Yposition Zposition Xrotation Yrotation Zrotation
											JOINT mixamorig:LeftHandThumb4
											{
												OFFSET 1.998924 -1.154083 1.154080
												CHANNELS 6 Xposition Yposition Zposition Xrotation Yrotation Zrotation
												End Site
												{
													OFFSET 1.884041 -1.149155 1.337651
												}
											}
										}
									}
								}
								JOINT mixamorig:LeftHandIndex1
								{
									OFFSET 9.109299 -0.518005 2.259900
									CHANNELS 6 Xposition Yposition Zposition Xrotation Yrotation Zrotation
									JOINT mixamorig:LeftHandIndex2
									{
										OFFSET 3.699997 0.000000 0.000000
										CHANNELS 3 Xrotation Yrotation Zrotation
										JOINT mixamorig:LeftHandIndex3
										{
											OFFSET 2.850006 0.000000 0.000000
											CHANNELS 3 Xrotation Yrotation Zrotation
											JOINT mixamorig:LeftHandIndex4
											{
												OFFSET 2.774895 0.000000 0.000000
												CHANNELS 3 Xrotation Yrotation Zrotation
												End Site
												{
													OFFSET 2.774902 0.000000 -0.000072
												}
											}
										}
									}
								}
								JOINT mixamorig:LeftHandMiddle1
								{
									OFFSET 9.533401 0.000000 0.000000
									CHANNELS 6 Xposition Yposition Zposition Xrotation Yrotation Zrotation
									JOINT mixamorig:LeftHandMiddle2
									{
										OFFSET 3.699997 0.000000 0.000000
										CHANNELS 3 Xrotation Yrotation Zrotation
										JOINT mixamorig:LeftHandMiddle3
										{
											OFFSET 2.949997 0.000000 0.000000
											CHANNELS 3 Xrotation Yrotation Zrotation
											JOINT mixamorig:LeftHandMiddle4
											{
												OFFSET 2.952896 0.000000 0.000000
												CHANNELS 3 Xrotation Yrotation Zrotation
												End Site
												{
													OFFSET 2.952904 0.000000 0.000165
												}
											}
										}
									}
								}
								JOINT mixamorig:LeftHandRing1
								{
									OFFSET 9.104500 -0.042999 -1.865101
									CHANNELS 6 Xposition Yposition Zposition Xrotation Yrotation Zrotation
									JOINT mixamorig:LeftHandRing2
									{
										OFFSET 3.149994 0.000000 0.000000
										CHANNELS 3 Xrotation Yrotation Zrotation
										JOINT mixamorig:LeftHandRing3
										{
											OFFSET 2.950005 0.000000 0.000000
											CHANNELS 3 Xrotation Yrotation Zrotation
											JOINT mixamorig:LeftHandRing4
											{
												OFFSET 2.644302 0.000000 0.000000
												CHANNELS 3 Xrotation Yrotation Zrotation
												End Site
												{
													OFFSET 2.644302 0.000000 0.000083
												}
											}
										}
									}
								}
								JOINT mixamorig:LeftHandPinky1
								{
									OFFSET 8.077805 -0.486893 -3.806302
									CHANNELS 6 Xposition Yposition Zposition Xrotation Yrotation Zrotation
									JOINT mixamorig:LeftHandPinky2
									{
										OFFSET 3.600006 0.000000 0.000000
										CHANNELS 3 Xrotation Yrotation Zrotation
										JOINT mixamorig:LeftHandPinky3
										{
											OFFSET 2.099998 0.000000 0.000000
											CHANNELS 3 Xrotation Yrotation Zrotation
											JOINT mixamorig:LeftHandPinky4
											{
												OFFSET 2.125496 0.000000 0.000000
												CHANNELS 3 Xrotation Yrotation Zrotation
												End Site
												{
													OFFSET 2.125504 0.000000 -0.001254
												}
											}
										}
									}
								}
							}
						}
					}
				}
			}
		}
	}
	JOINT mixamorig:RightUpLeg
	{
		OFFSET -8.207800 -6.751701 -1.599544
		CHANNELS 6 Xposition Yposition Zposition Xrotation Yrotation Zrotation
		JOINT mixamorig:RightLeg
		{
			OFFSET 0.000004 -44.370152 0.345934
			CHANNELS 3 Xrotation Yrotation Zrotation
			JOINT mixamorig:RightFoot
			{
				OFFSET 0.000004 -44.423664 -3.043535
				CHANNELS 3 Xrotation Yrotation Zrotation
				JOINT mixamorig:RightToeBase
				{
					OFFSET 0.000001 -8.728691 10.710592
					CHANNELS 3 Xrotation Yrotation Zrotation
					JOINT mixamorig:RightToe_End
					{
						OFFSET 0.000000 -0.000665 9.278101
						CHANNELS 3 Xrotation Yrotation Zrotation
						End Site
						{
							OFFSET 0.000000 -0.000665 9.278103
						}
					}
				}
			}
		}
	}
	JOINT mixamorig:LeftUpLeg
	{
		OFFSET 8.207800 -6.751701 -1.599544
		CHANNELS 6 Xposition Yposition Zposition Xrotation Yrotation Zrotation
		JOINT mixamorig:LeftLeg
		{
			OFFSET 0.000004 -44.370037 0.346940
			CHANNELS 3 Xrotation Yrotation Zrotation
			JOINT mixamorig:LeftFoot
			{
				OFFSET 0.000004 -44.423611 -3.044388
				CHANNELS 3 Xrotation Yrotation Zrotation
				JOINT mixamorig:LeftToeBase
				{
					OFFSET 0.000001 -8.728690 10.710592
					CHANNELS 3 Xrotation Yrotation Zrotation
					JOINT mixamorig:LeftToe_End
					{
						OFFSET 0.000000 -0.000680 9.278101
						CHANNELS 3 Xrotation Yrotation Zrotation
						End Site
						{
							OFFSET 0.000000 -0.000680 9.278101
						}
					}
				}
			}
		}
	}
}
MOTION
Frames: 4
Frame Time: 0.033333
-1.145019 96.498199 1.219341 1.637837 -42.040941 1.470686 0.000000 10.181548 0.131523 10.692511 4.405608 -0.815218 2.906328 0.591664 0.030037 2.905425 0.596365 0.041719 0.000000 16.740372 -2.049024 9.082256 1.326047 -6.758043 -0.000003 9.617851 1.684978 13.887217 4.869964 -17.609720 -0.000002 22.037384 7.501064 0.000000 0.000000 0.000001 -4.570000 11.014870 -2.160845 1.633193 16.956030 -9.285385 -23.147274 25.972771 73.642601 0.000156 115.161210 -0.000115 -12.173551 13.969141 -24.946651 -2.464785 -1.573993 2.681912 32.408438 -13.409023 14.972815 6.468308 -18.913472 -13.319884 -2.646270 -1.527793 1.527802 60.020636 -57.623028 30.237934 -1.994582 -1.151573 1.151579 -0.000003 -0.000002 -0.000004 -9.108294 -0.517883 2.259813 8.398453 -6.795925 102.075989 9.722832 -6.372686 113.587501 9.722814 -6.372708 113.587473 -0.000001 -0.000001 -0.000000 -9.532493 0.000002 0.000013 8.473290 -6.779633 102.897490 9.760543 -6.356206 113.927719 9.819572 -6.540616 113.765079 0.000002 -0.000000 0.000003 -9.103593 -0.043098 -1.865094 5.565194 -7.132952 96.068182 8.903100 -6.668849 106.378687 8.762297 -6.408015 105.842818 0.000001 -0.000001 0.000000 -8.076699 -0.486729 -3.806285 -0.217568 -9.282890 106.046719 7.927445 -6.879204 98.121357 7.927444 -6.879217 98.121336 0.000003 -0.000001 -0.000001 4.570400 11.014687 -2.160818 1.357851 -4.274562 -3.579949 -29.423649 -6.402672 -55.242806 -0.000002 -125.792332 -0.000010 5.435970 -4.808101 17.990037 2.466110 -1.576198 2.681705 2.825239 10.329823 0.827377 6.817477 15.268500 2.201389 2.647895 -1.528737 1.528756 16.493901 15.543796 -13.682338 1.998917 -1.154084 1.154078 0.000004 -0.000001 -0.000000 9.109289 -0.518029 2.259903 2.622324 5.410007 -51.696254 5.986515 6.823211 -82.511670 3.423523 5.953151 -59.776040 0.000001 -0.000002 -0.000004 9.533417 -0.000014 0.000003 2.092833 4.947888 -46.064421 5.220647 6.678919 -76.003558 2.704709 5.473788 -52.565122 -0.000000 -0.000001 -0.000002 9.104508 -0.043016 -1.865103 2.389437 5.219616 -50.118794 5.674797 6.775276 -79.879199 2.984457 5.676045 -55.444074 -0.000001 0.000000 0.000001 8.077816 -0.486902 -3.806291 3.934097 6.575522 -48.514451 5.282876 2.607342 -76.579282 2.606522 5.397548 -51.528528 0.000000 -0.000002 -0.000004 -8.207804 -6.751709 -1.599541 -12.546413 -11.034060 -13.542033 35.602242 1.656653 -1.356272 -24.109110 -3.156929 11.329640 -0.642700 -0.000036 -0.000003 0.000000 -0.000002 -0.000000 8.207800 -6.751699 -1.599543 -25.746260 13.295541 19.028437 34.090403 -5.883409 2.785833 -10.290138 1.952495 -13.968171 -2.744777 -0.000008 -0.000000 -0.000000 0.000000 0.000000 
-0.871070 95.995934 1.797777 0.865608 -41.439389 1.028806 -0.000000 10.181539 0.131522 11.362395 4.159140 -0.302880 2.819884 0.555295 -0.050744 2.819989 0.555863 -0.040936 -0.000000 16.740343 -2.049019 8.906236 1.316380 -6.751063 -0.000001 9.617847 1.684983 13.726878 4.766682 -17.667244 0.000002 22.037384 7.501077 0.000002 -0.000000 -0.000000 -4.570000 11.014863 -2.160835 1.464998 16.546273 -9.657478 -22.458328 26.219269 73.799504 0.000151 114.924572 -0.000108 -12.021538 14.605381 -24.829473 -2.464792 -1.573996 2.681909 32.408445 -13.409026 14.972816 6.468312 -18.913470 -13.319880 -2.646263 -1.527799 1.527806 60.020636 -57.623034 30.237927 -1.994614 -1.151600 1.151574 -0.000002 -0.000006 0.000003 -9.108315 -0.517879 2.259818 8.398454 -6.795926 102.075989 9.722829 -6.372688 113.587494 9.722815 -6.372708 113.587467 -0.000001 -0.000001 0.000001 -9.532507 0.000008 0.000014 8.473290 -6.779634 102.897483 9.760538 -6.356203 113.927726 9.819573 -6.540612 113.765079 0.000000 0.000001 0.000003 -9.103592 -0.043107 -1.865089 5.565196 -7.132952 96.068182 8.903094 -6.668849 106.378687 8.762299 -6.408014 105.842824 0.000002 -0.000002 -0.000001 -8.076712 -0.486736 -3.806293 -0.217567 -9.282897 106.046726 7.927448 -6.879205 98.121357 7.927441 -6.879221 98.121336 -0.000001 0.000001 -0.000002 4.570403 11.014666 -2.160815 1.427190 -4.493073 -3.979918 -28.039323 -6.421894 -55.899962 0.000017 -125.180934 0.000015 5.921601 -5.136237 17.789347 2.466088 -1.576189 2.681705 2.825244 10.329823 0.827376 6.817480 15.268502 2.201391 2.647878 -1.528742 1.528732 16.493901 15.543798 -13.682347 1.998917 -1.154087 1.154073 0.000001 0.000003 -0.000000 9.109293 -0.518013 2.259902 2.622327 5.410004 -51.696247 5.986517 6.823210 -82.511670 3.423524 5.953152 -59.776033 -0.000001 0.000002 0.000001 9.533379 0.000009 0.000002 2.092833 4.947889 -46.064418 5.220644 6.678919 -76.003558 2.704708 5.473787 -52.565126 -0.000000 0.000003 -0.000001 9.104501 -0.043000 -1.865096 2.389439 5.219616 -50.118798 5.674800 6.775277 -79.879199 2.984458 5.676044 -55.444074 -0.000002 0.000005 -0.000000 8.077782 -0.486891 -3.806303 3.934097 6.575523 -48.514451 5.282879 2.607343 -76.579275 2.606520 5.397546 -51.528528 -0.000000 -0.000002 -0.000001 -8.207801 -6.751708 -1.599543 -12.371684 -11.281646 -14.294691 36.840736 1.751439 -1.341942 -24.919038 -3.397508 11.766392 -0.398971 -0.000004 -0.000003 0.000000 -0.000001 -0.000000 8.207799 -6.751705 -1.599545 -27.574753 12.233603 18.839361 38.677732 -6.326600 3.124726 -8.487293 1.697673 -13.692170 -5.355796 0.000050 0.003316 0.000000 0.000000 0.000000 
-0.597121 95.493668 2.376213 0.106608 -40.833480 0.601730 0.000000 10.181558 0.131523 12.034260 3.918669 0.212158 2.733389 0.519052 -0.131580 2.734490 0.515481 -0.123648 -0.000001 16.740368 -2.049018 8.730217 1.306699 -6.744113 -0.000004 9.617859 1.684970 13.566453 4.663562 -17.725053 -0.000001 22.037369 7.501070 -0.000001 -0.000002 0.000001 -4.570001 11.014873 -2.160838 1.294389 16.137574 -10.030040 -21.768662 26.467454 73.953436 0.000143 114.687947 -0.000101 -11.870425 15.241924 -24.713701 -2.464788 -1.573987 2.681906 32.408438 -13.409027 14.972815 6.468314 -18.913467 -13.319886 -2.646278 -1.527774 1.527811 60.020636 -57.623028 30.237924 -1.994578 -1.151552 1.151581 -0.000003 -0.000004 -0.000002 -9.108293 -0.517873 2.259806 8.398454 -6.795933 102.075989 9.722829 -6.372686 113.587494 9.722815 -6.372710 113.587473 0.000000 0.000000 0.000002 -9.532495 0.000004 -0.000003 8.473291 -6.779640 102.897483 9.760539 -6.356205 113.927726 9.819572 -6.540616 113.765086 0.000002 0.000002 -0.000000 -9.103592 -0.043104 -1.865098 5.565195 -7.132957 96.068182 8.903100 -6.668848 106.378687 8.762298 -6.408013 105.842818 0.000002 -0.000000 -0.000003 -8.076700 -0.486713 -3.806289 -0.217566 -9.282900 106.046719 7.927452 -6.879206 98.121357 7.927442 -6.879223 98.121336 -0.000002 -0.000000 0.000001 4.570400 11.014676 -2.160809 1.495022 -4.712054 -4.379746 -26.655245 -6.456889 -56.556493 0.000042 -124.569523 0.000044 6.406341 -5.466053 17.591347 2.466102 -1.576210 2.681693 2.825238 10.329819 0.827374 6.817480 15.268500 2.201392 2.647886 -1.528755 1.528741 16.493898 15.543798 -13.682341 1.998932 -1.154079 1.154077 0.000002 0.000000 0.000003 9.109278 -0.518006 2.259892 2.622326 5.410007 -51.696250 5.986520 6.823210 -82.511677 3.423522 5.953149 -59.776040 0.000001 0.000000 0.000001 9.533410 0.000009 -0.000009 2.092834 4.947886 -46.064425 5.220647 6.678920 -76.003558 2.704710 5.473787 -52.565126 0.000001 -0.000003 -0.000000 9.104500 -0.043004 -1.865111 2.389436 5.219620 -50.118791 5.674802 6.775276 -79.879199 2.984457 5.676047 -55.444074 0.000001 -0.000001 -0.000003 8.077797 -0.486895 -3.806311 3.934096 6.575523 -48.514451 5.282873 2.607343 -76.579282 2.606520 5.397550 -51.528528 0.000001 0.000002 0.000001 -8.207803 -6.751710 -1.599544 -12.200139 -11.531471 -15.047229 38.079268 1.846506 -1.329666 -25.727337 -3.644215 12.199800 -0.155247 0.000021 -0.000005 -0.000000 0.000002 0.000000 8.207800 -6.751694 -1.599547 -29.399829 11.178078 18.616572 43.271547 -6.741399 3.498515 -6.683453 1.451653 -13.408325 -7.966817 -0.000042 0.006632 0.000000 0.000000 0.000000 
-0.282619 94.820244 3.036240 -0.629128 -41.465279 0.469845 0.000001 10.181554 0.131523 13.035300 3.662860 0.395360 2.527218 0.480826 -0.161677 2.528486 0.475406 -0.155953 -0.000003 16.740364 -2.049017 8.690971 1.318915 -6.851821 -0.000010 9.617840 1.684977 13.537274 4.720689 -18.143872 0.000000 22.037369 7.501070 -0.000005 -0.000001 -0.000000 -4.570001 11.014874 -2.160839 1.157674 15.669759 -10.213566 -20.765404 27.311608 73.922823 0.000142 114.134893 -0.000097 -11.829065 16.142001 -24.563099 -2.464792 -1.573989 2.681922 32.408442 -13.409028 14.972813 6.468313 -18.913470 -13.319886 -2.646263 -1.527800 1.527817 60.020636 -57.623028 30.237924 -1.994594 -1.151571 1.151569 -0.000003 -0.000002 0.000001 -9.108315 -0.517892 2.259817 8.398454 -6.795928 102.075989 9.722831 -6.372686 113.587494 9.722816 -6.372711 113.587473 -0.000000 -0.000001 0.000006 -9.532511 0.000006 0.000016 8.473290 -6.779635 102.897483 9.760538 -6.356205 113.927726 9.819573 -6.540613 113.765079 -0.000002 0.000002 0.000002 -9.103593 -0.043105 -1.865086 5.565195 -7.132954 96.068182 8.903104 -6.668848 106.378687 8.762297 -6.408014 105.842824 0.000001 -0.000001 -0.000002 -8.076700 -0.486706 -3.806282 -0.217567 -9.282895 106.046719 7.927450 -6.879206 98.121357 7.927443 -6.879220 98.121336 0.000003 -0.000001 -0.000000 4.570399 11.014728 -2.160816 1.545211 -4.740671 -4.887423 -24.925590 -6.212994 -57.269152 0.000028 -124.433192 0.000046 6.577272 -6.689468 17.516667 2.466099 -1.576184 2.681692 2.825242 10.329820 0.827375 6.817482 15.268500 2.201391 2.647897 -1.528767 1.528743 16.493905 15.543800 -13.682346 1.998924 -1.154094 1.154075 0.000003 -0.000002 0.000003 9.109297 -0.518014 2.259897 2.622326 5.410008 -51.696254 5.986514 6.823211 -82.511670 3.423523 5.953153 -59.776040 0.000001 0.000000 0.000002 9.533413 0.000002 0.000001 2.092836 4.947889 -46.064425 5.220646 6.678920 -76.003558 2.704710 5.473787 -52.565126 -0.000001 -0.000001 -0.000002 9.104527 -0.043000 -1.865103 2.389438 5.219617 -50.118794 5.674799 6.775276 -79.879206 2.984458 5.676045 -55.444071 0.000001 -0.000001 -0.000001 8.077812 -0.486891 -3.806302 3.934099 6.575524 -48.514455 5.282873 2.607343 -76.579275 2.606521 5.397549 -51.528525 0.000000 -0.000001 0.000001 -8.207804 -6.751709 -1.599543 -12.792233 -11.721228 -16.234070 39.836795 3.263634 -1.887993 -26.686466 -3.861414 12.481543 -0.214956 0.000023 -0.000002 0.000000 0.000002 0.000000 8.207802 -6.751691 -1.599543 -31.285275 10.425205 19.448786 47.963269 -7.294044 3.379705 -4.728210 -0.820194 -15.351410 -8.414232 -0.060397 1.375736 0.000000 0.000000 0.000000 
